<?xml version="1.0" encoding="UTF-8"?>
<svg id="Capa_2" data-name="Capa 2" xmlns="http://www.w3.org/2000/svg" viewBox="0 0 87.75 111.04">
  <defs>
    <style>
      .cls-1 {
        fill: none;
        stroke: #000;
        stroke-miterlimit: 10;
        stroke-width: 8px;
      }
    </style>
  </defs>
  <g id="Capa_1-2" data-name="Capa 1">
    <path class="cls-1" d="m42.1,105.46c-3.97-2.14-6.05-5.4-6.56-9.69-.48-4.04.4-7.86,2.02-11.54,3.47-7.88,6.97-15.75,10.4-23.65,1.26-2.9-.02-4.7-3.21-4.7-10.17,0-20.35-.02-30.52.02-1.01,0-1.71-.33-2.37-1.04-3.32-3.59-5.21-7.91-6.32-12.58-2.45-10.35-2.12-20.56,1.97-30.49,1.09-2.65,2.6-5.07,4.7-7.06.36-.34.94-.66,1.41-.66,14.01-.01,28.03-.23,42.04.14,9.02.24,17.21,3.54,24.39,9.09.84.65,1.56,1.45,2.28,2.24.97,1.07,1.37,2.34,1.36,3.8-.04,6.37-.17,12.75.03,19.11.18,5.86-1.39,11.16-4.17,16.2-4.3,7.79-9.9,14.59-16.06,20.94-2.81,2.89-5.89,5.52-8.71,8.41-4.78,4.88-7.91,10.83-10.72,16.96-.66,1.43-1.26,2.89-1.96,4.48Z"/>
  </g>
</svg>