<?xml version="1.0" encoding="UTF-8"?>
<svg id="Capa_2" data-name="Capa 2" xmlns="http://www.w3.org/2000/svg" viewBox="0 0 2374 575.72">
  <defs>
    <style>
      .cls-1 {
        fill: #5c4495;
        stroke-width: 0px;
      }
    </style>
  </defs>
  <g id="Capa_1-2" data-name="Capa 1">
    <path class="cls-1" d="m96.31,371.63h197.2c.52,16.07,1.03,32.14,1.55,48.2-22.77,16.58-45.54,33.17-68.31,49.75,20.11,22.51,40.21,45.02,60.32,67.54-19.25,12.37-38.49,24.75-57.74,37.12-21.91-22.86-43.82-45.71-65.73-68.57-21.16,15.63-40.1,26.84-54.39,34.54-23.66,12.76-38.27,20.47-59.87,24.42-19.55,3.57-48.17,4.68-49.3-.34-.06-.27-.03-.52,0-.7,6.48-15.36,12.97-30.71,19.45-46.07,7.87.84,20.31,1.28,34.67-2.38,7.89-2.02,15.88-5.15,40.21-19.33,15.11-8.81,22.67-13.21,35.57-21.85,17.24-11.53,42.29-29.15,73.09-53.79-39.83-.24-79.66-.49-119.49-.73,4.25-15.94,8.51-31.88,12.76-47.82Z"/>
    <path class="cls-1" d="m963.91,411.16c-12.63.12-25.26.25-37.89.37,5.02-13.37,10.05-26.74,15.07-40.1,12.55.03,25.09.05,37.64.08-4.94,13.22-9.88,26.44-14.82,39.66Z"/>
    <path class="cls-1" d="m1011.27,411.16c-12.63.12-25.26.25-37.89.37,5.02-13.37,10.05-26.74,15.07-40.1,12.55.03,25.09.05,37.64.08-4.94,13.22-9.88,26.44-14.82,39.66Z"/>
    <path class="cls-1" d="m1198.82,556.13c24.49-7.48,48.98-14.95,73.47-22.43-14.01-46.4-28.01-92.8-42.02-139.2-23.72,7.65-47.43,15.29-71.15,22.94,13.23,46.23,26.46,92.46,39.7,138.68Z"/>
    <path class="cls-1" d="m1115.61,391.06c-41.52,44.63-83.04,89.25-124.56,133.88,18.47,9.88,36.95,19.76,55.42,29.64,39.53-44.08,79.05-88.16,118.58-132.24-16.48-10.43-32.96-20.86-49.44-31.28Z"/>
    <path class="cls-1" d="m1302.81,408.64c18-11.92,35.99-23.83,53.99-35.75,19.09,15.88,38.17,31.77,57.26,47.65-17.2,12.12-34.39,24.25-51.59,36.37-19.89-16.09-39.77-32.18-59.66-48.27Z"/>
    <path class="cls-1" d="m1507.8,403.39c12.19,10.96,24.37,21.91,36.56,32.87-53.96,37.25-107.92,74.5-161.88,111.75-6.1,3.67-14.03,7.74-23.72,11.08-9.31,3.21-17.75,4.9-24.62,5.8h-59.89c4.63-16.11,9.25-32.22,13.88-48.33,13.02.13,26.04.26,39.05.39,2.82.13,6.81,0,11.41-1.16,4.32-1.1,7.72-2.74,10.08-4.12,53.04-36.09,106.08-72.18,159.12-108.27Z"/>
    <path class="cls-1" d="m1663.2,360.35c-41.98,32.15-83.97,64.31-125.95,96.46,11.99,9.92,23.97,19.85,35.96,29.77,24.76-18.92,49.51-37.84,74.27-56.76h63.93c-13.71,11.08-27.41,22.17-41.12,33.25-7-5.5-14.01-11-21.01-16.5-13.74,10.74-27.47,21.49-41.21,32.23,6.78,5.24,13.56,10.47,20.33,15.71-5.45,6.24-16.89,17.33-34.35,21.17-3.96.87-7.69,1.25-11.08,1.33-17.31.35-34.61.71-51.92,1.06-3.59,15.6-7.19,31.21-10.78,46.81h61.61c12.66-1.7,31.86-5.9,52.46-17.27,14.42-7.96,25.2-17.04,32.74-24.49,7.91,6.1,15.81,12.2,23.72,18.3,13.02-9.75,26.04-19.5,39.05-29.26-6.57-6.1-13.15-12.2-19.72-18.3,26.12-21.09,52.24-42.19,78.36-63.28-.13-11.9-.26-23.8-.39-35.7-30.85-2.02-61.69-4.04-92.54-6.06-10.78-9.49-21.57-18.99-32.35-28.48Z"/>
    <path class="cls-1" d="m2038.9,373.11h197.2c.52,16.07,1.03,32.14,1.55,48.2-22.77,16.58-45.54,33.17-68.31,49.75,20.11,22.51,40.21,45.02,60.32,67.54-19.25,12.37-38.49,24.75-57.74,37.12-21.91-22.86-43.82-45.71-65.73-68.57-21.16,15.63-40.1,26.84-54.39,34.54-23.66,12.76-38.26,20.47-59.87,24.42-19.55,3.57-48.17,4.68-49.3-.34-.06-.27-.03-.52,0-.7,6.48-15.36,12.97-30.71,19.45-46.07,7.87.84,20.31,1.28,34.67-2.38,7.89-2.02,15.88-5.15,40.21-19.33,15.11-8.81,22.67-13.21,35.57-21.85,17.24-11.53,42.29-29.15,73.09-53.79-39.83-.24-79.66-.49-119.49-.73,4.25-15.94,8.51-31.88,12.76-47.82Z"/>
    <path class="cls-1" d="m1791.01,442.57c71.29-.08,142.58-.17,213.87-.25-4.9,16.63-9.8,33.25-14.69,49.88h-215.76c5.53-16.54,11.06-33.08,16.58-49.63Z"/>
    <path class="cls-1" d="m2286.7,413.07h-37.89c5.16-13.32,10.31-26.64,15.47-39.96,12.55.15,25.09.3,37.64.45-5.07,13.17-10.14,26.34-15.21,39.51Z"/>
    <path class="cls-1" d="m572.97,394.49c0-7-5.68-12.68-12.68-12.68s-12.68,5.68-12.68,12.68,5.68,12.68,12.68,12.68,12.68-5.68,12.68-12.68Zm-12.68,35.04c-19.35,0-35.04-15.69-35.04-35.04s15.69-35.04,35.04-35.04,35.04,15.69,35.04,35.04-15.69,35.04-35.04,35.04Z"/>
    <path class="cls-1" d="m627.12,104.37l36.65-99.91h181.37l-22.84,62.17-111.24.5-9.19,23.34h41.22c-38.65,4.64-77.31,9.27-115.96,13.91Z"/>
    <path class="cls-1" d="m820.42,86.15l29.01-81.69h100.9s13.42.28,20.54,2.43c11.18,3.38,22.91,9.49,34.53,20.1,13.45,12.28,17.19,39.07,17.19,39.07l-74.53,8.48s-6.52-6.69-14.73-8.03c-8.92-1.46-36.15,0-36.15,0l-6.25,13.83-70.51,5.8Z"/>
    <polygon class="cls-1" points="792.86 127.22 611.87 144.06 623.96 110.37 805.39 100 792.86 127.22"/>
    <polygon class="cls-1" points="877.96 119.69 805.39 126.35 814.9 97.84 887.47 92.66 877.96 119.69"/>
    <path class="cls-1" d="m1019.65,106.91l-72.57,7.48s2.44-3.1,3.95-12.6c1.04-6.55.97-12.48.97-12.48l72.01-7.04s-.26,11.81-1.43,18.48c-1.18,6.67-2.93,6.16-2.93,6.16Z"/>
    <path class="cls-1" d="m681.86,145.46l-8.52,22.8h62.79c-45.65,5.49-91.31,10.99-136.96,16.48l10.16-32.97,72.53-6.32Z"/>
    <polygon class="cls-1" points="772.22 205.59 584.88 224.31 596.42 190.51 781.64 180.02 772.22 205.59"/>
    <path class="cls-1" d="m995.31,167.23s-6.06,10.43-11.1,15.48c-5.05,5.05-10.43,4.37-10.43,4.37l-196.51,17.5,8.41-24.56,209.63-12.79Z"/>
    <polygon class="cls-1" points="863.07 161.17 789.72 167.23 800.48 140.31 873.16 134.59 863.07 161.17"/>
    <path class="cls-1" d="m945.17,129.88l70.3-5.72s-7.16,17.27-9.52,21.36c-2.36,4.09-7.07,3.99-7.07,3.99l-68.18,4.26s4.85-6.75,8.04-11.42c3.82-5.61,6.43-12.47,6.43-12.47Z"/>
    <path class="cls-1" d="m769.64,216.4l-4.54,10.23s-1.41,2.27-2.49,2.27-121.74,2.01-121.74,2.01c42.92-4.84,85.85-9.67,128.77-14.51Z"/>
    <path class="cls-1" d="m950.1,206.46l.49,3.79s-2.08,1.84-5.51,3.43c-3.43,1.59-24.48,8.57-32.68,11.14-8.2,2.57-17.14,3.43-17.14,3.43l-126.81.49,5.51-13.46,176.13-8.81Z"/>
    <polygon class="cls-1" points="1261.32 10.88 1182.02 230.91 1112.75 230.91 1142.87 145.46 1084.89 145.46 1054.78 230.91 986.2 230.91 1062.55 10.88 1131.82 10.88 1106.73 82.27 1163.95 82.27 1189.79 10.88 1261.32 10.88"/>
    <path class="cls-1" d="m1425.37,128.66c-4.56,13.67-18.54,51.35-28.26,64.72-9.72,13.37-28.56,26.74-38.29,31.6-9.72,4.86-24.92,8.51-39.2,10.03-14.28,1.52-42.71-.5-51.01-2.02-8.3-1.51-32.38-9.03-47.44-26.54-15.06-17.51-3.01-52.69-3.01-52.69l49.93-142.89h68.94s-36.25,101.82-40.28,112.9c-4.03,11.08-10.15,22.71-10.15,38.32s12.67,17.58,22.74,17.58,18.13-1.66,26.08-8.38c9.18-7.75,19.75-40.97,19.75-40.97l42.8-119.44h69s-37.05,104.11-41.61,117.78Z"/>
    <polygon class="cls-1" points="1973.92 173.86 1954.48 230.91 1772.34 230.91 1825.75 70.7 1774.96 71.58 1720.67 230.91 1651.49 230.91 1704.03 72.45 1650.61 72.45 1595.44 230.91 1528.01 230.91 1505.24 114.26 1467.49 230.91 1399.28 230.91 1474.08 10.88 1539.2 10.88 1565.75 124.6 1605.71 10.88 2028.71 10.88 2008.4 68.3 1897.57 69.36 1887.71 94.34 1990.81 95.04 1971.81 150.64 1869.42 150.99 1860.97 173.86 1973.92 173.86"/>
    <path class="cls-1" d="m2373.8,52.25c-.81-5.52-3.92-14.4-11.4-21.65-8.13-7.88-17.12-15-31.52-19.26-14.4-4.25-27.7-5.24-40.08-5.24-11.94,0-27.24,3.47-34.2,5.4-9.34,2.59-19.98,8.08-27.49,12.76-9.34,5.82-16.05,12.83-18,14.89-1.09,1.15-2.63,3.09-3.96,5.13-1.35-7.59-5.3-16.03-11.46-21.34-7.47-6.43-14.33-8.35-23.39-9.18-9.34-.85-135.99-2.93-135.99-2.93l-74.68,220.03h69.29l24.44-74.08h27.08s10.28.18,15.68,3.92c4.72,3.27,7.13,5.7,6.06,17.11-1.07,11.4-7.84,21.74-7.48,35.99.36,14.26.71,17.06.71,17.06h66.64s-2.85-18.13,0-27.04c.2-.63.41-1.34.62-2.09,1.76,3.78,4.06,7.28,7.04,10.38,9.62,9.98,28.5,19.95,42.75,21.38,14.25,1.43,13.14,1.98,30.23,2.17,17.09.19,27.54-1.83,37.16-4.79,11.6-3.56,29.83-13.54,37.9-18.8,11.98-7.83,21.54-22.16,25.55-31.79,4.01-9.63,6.96-25.42,5.89-34.78-1.07-9.36-2.41-21.4-13.91-30.23-11.5-8.83-26.75-16.32-46.28-21.94-19.53-5.62-29.96-8.83-31.57-15.25-1.61-6.42,1.57-11.74,4.01-13.91,2.17-1.93,7.32-4.85,14.68-4.83,5.92.02,12.58-.25,17.27.33,4.45.55,8.55,2.47,9.87,5.59,1.32,3.12,1.87,8.54,2.14,12.17l.26,3.63h59.51s3.64-.07,4.46-.13c1.37-.1,2.17-4.85,2.17-6.94s.45-18.64,0-21.73Zm-107.92,96.84c4.9,1.75,10.48,3.04,13.89,6.94,4.13,4.72,6.58,13,4.44,20.66-2.79,9.99-8.91,10.22-18.18,10.68-6.48.32-23.4.5-28.53-2.33-5.13-2.83-10.79-10.61-10.61-18.4.18-7.78,0-10.79,0-10.79l-56.65-.02c-.9-7.16-2.81-14.46-5.81-17.57-2.13-2.21-8.05-6.44-8.55-6.77-.5-.34,3.69-.84,10.73-3.52,6.95-2.65,27.12-16.19,30.29-21.33.66,3.5,1.9,7.41,4.48,11.01,2.34,3.27,18.07,16.63,27.72,20.22,9.65,3.59,30.36,8.92,36.79,11.22Zm-150.89-87.4c5.21.29,7.42,0,12.32,2.21,5.55,2.5,6.06,8.31,6.06,12.11s-3.37,14.32-9.5,18.41c-6.13,4.09-20.83,6.43-27.88,7.01-7.05.58-27.88,1.46-27.88,1.46l16.54-41.21s25.12-.29,30.33,0Z"/>
    <path class="cls-1" d="m402.96,205.54c63.94-6.82,127.88-13.63,191.82-20.45l5.44-15.75-114.36.52,3.69-10.33c-23.71,1.45-47.42,2.9-71.13,4.34,24.45-3.29,48.9-6.59,73.35-9.88l3.32-9.59h105.14l11.09-31.73c-59.74,4.78-119.48,9.56-179.22,14.34,60.6-7.48,121.2-14.97,181.81-22.45l5.17-14.39h-105.16l9.59-22.94h111.8l23.86-62.75h-181.61l-19.35,52.16c-.13-5.49-.91-10.65-2.69-14.89-6.47-15.37-15.24-26.58-26.65-31.09-7.41-2.93-15.81-4.89-30.77-5.3-14.96-.4-95.55-.88-95.55-.88l-11.08.16-19.27,53.99c-.84-7.89-2.78-17.1-7.06-24.82C255.45,16.34,236.77-.01,182.59,0c-41.04.01-53.96,4.62-74.63,23.78-13.06,12.11-20.14,32.59-22.44,50.52-1.7,13.26.05,37.44,15.91,46.82,16.7,9.88,43.78,19.26,51.78,21.93,7.99,2.66,23.18,5.42,24.53,16.2,1.36,10.78-3.23,17.79-7.13,20.77-3.9,2.98-16.38,3.79-29.83,2.86-7.41-.52-18.12-3.9-19.04-10.55-.92-6.65-.92-21.56-.92-21.56l-67.22-.23s-2.39,6.06-2.45,15.94c-.05,9.09.95,14.69,4.28,25.13,3.44,10.77,13.31,22.94,24.78,29.14,11.47,6.19,30.27,13.04,55.52,11.93,33.2-1.46,53.72-10.47,59.87-13.08,10.9-4.62,19.98-12.6,22.91-15.66.81-.85,1.88-2.1,3.1-3.63l-9.94,27.86h67.94l24.26-65.51s50.14,1.21,59.44-.4c9.3-1.62,40.44-7.68,55.8-21.43,4.67-4.18,9.03-8.92,12.98-13.8l-37.52,101.15h149.7l36.19-4.09,11.94-32.34c-63.15,4.61-126.3,9.21-189.44,13.82Zm-159.84-78.41c-2.29-10.32-10.12-17.21-21.13-23.62-12.73-7.41-23.7-10.89-30.79-13.12-7.71-2.43-28.93-7.19-33.11-12-4.8-5.52-3.87-14.95,2.21-19.59,6.69-5.12,13.78-6.56,23.62-5.58,9.84.98,15.45,3.34,17.06,6.56,1.61,3.22,2.23,7.93,2.23,9.66s.63,7,.63,7h61.99l-22.1,61.91c.17-4.49.01-8.44-.6-11.22Zm120.43-65.4c4.97.29,7.08,0,11.76,2.21,5.3,2.5,5.78,8.31,5.78,12.11s-3.22,14.32-9.06,18.41c-5.85,4.09-19.88,6.43-26.6,7.01-6.72.58-26.6,1.46-26.6,1.46l15.78-41.21s23.97-.29,28.94,0Z"/>
    <path class="cls-1" d="m391.43,484.94c-36.15.56-62.9.89-80.31.97-2.65,7.75-5.31,15.51-7.96,23.26,15.89-.81,43.38-1.93,82.49-3.34,1.93-6.96,3.85-13.93,5.78-20.89Z"/>
    <path class="cls-1" d="m525.51,511.92h-141.54c.18-.66.36-1.31.54-1.97-38.98.59-66.28.89-81.93.88-1.05,3.07-2.1,6.13-3.15,9.2-.25.68-2.3,6.74-1.93,14.34,26.09-1.49,100.02-4.21,221.76-8.15,2.08-4.77,4.15-9.54,6.23-14.31Z"/>
    <path class="cls-1" d="m516.53,532.55c-119.98,2.27-192.95,3.33-218.92,3.18.45,5.25,2.12,11.11,6.35,16.41,2.23,2.8,4.74,4.88,7.18,6.46,32.7-1.53,98.41-3.9,197.15-7.12,2.75-6.31,5.49-12.62,8.24-18.92Z"/>
    <path class="cls-1" d="m321.35,562.96c61.09-1.03,122.19-2.06,183.28-3.09.32-.73.64-1.47.96-2.2-93.7,1.75-157.31,2.74-190.81,2.94,2.76,1.31,5.18,2.02,6.57,2.35Z"/>
    <path class="cls-1" d="m393.27,478.28c46.57-11.69,93.14-23.37,139.71-35.06-2.23-14.78-4.47-29.56-6.7-44.34-37.89,9.07-75.79,18.13-113.68,27.2,5.28-19.03,10.57-38.06,15.85-57.1h-77.33c-13.1,38.29-26.2,76.57-39.3,114.86,17.61-.82,44.55-1.87,80.78-3.17.22-.8.44-1.6.66-2.4Z"/>
    <path class="cls-1" d="m792.3,442.32c-71.29.08-142.58.17-213.87.25-3.59,10.76-7.19,21.51-10.78,32.27,62.06-1.98,134.41-4.22,217.05-6.72,2.53-8.6,5.07-17.2,7.6-25.8Z"/>
    <path class="cls-1" d="m777.61,492.2c1.45-4.94,2.91-9.88,4.36-14.81-82.53,1.74-154.75,3.21-216.65,4.42-1.16,3.46-2.32,6.93-3.47,10.39h215.76Z"/>
    <path class="cls-1" d="m773.86,567.42h79.27c1.93-5.65,3.87-11.3,5.8-16.95-27.48.59-53.99,1.15-79.49,1.69-1.86,5.09-3.72,10.18-5.57,15.27Z"/>
    <path class="cls-1" d="m792,517.75c25.37-.77,51.66-1.56,78.94-2.37,1.72-5.03,3.44-10.06,5.16-15.08-27.04.58-53.16,1.14-78.34,1.67-1.92,5.26-3.84,10.53-5.76,15.79Z"/>
    <path class="cls-1" d="m782.82,542.89c25.52-.77,52.04-1.57,79.53-2.4,1.72-5.04,3.45-10.08,5.17-15.12-27.27.58-53.57,1.14-78.92,1.68-1.93,5.28-3.85,10.56-5.78,15.84Z"/>
    <path class="cls-1" d="m968.36,515.61c2.39-5.82,4.79-11.64,7.19-17.47-15.98.35-31.7.69-47.12,1.02,13.31,5.48,26.62,10.96,39.94,16.44Z"/>
    <path class="cls-1" d="m990.78,461.09c-30.29-10.57-60.58-21.14-90.87-31.71,7.6-19.2,15.21-38.41,22.81-57.61-25.79-.05-51.59-.1-77.38-.14-11.65,31.91-23.3,63.81-34.95,95.72,55.57-1.68,115.6-3.47,180.02-5.38l.36-.88Z"/>
    <path class="cls-1" d="m801.21,492.53c25.19-.76,51.31-1.55,78.36-2.36,1.11-3.25,2.22-6.5,3.34-9.75,7.28,3,14.56,6,21.84,8.99,24.37-.73,49.49-1.47,75.31-2.24,1.94-4.72,3.88-9.44,5.83-14.17-64.05,1.4-123.7,2.68-178.95,3.85-1.91,5.22-3.81,10.44-5.72,15.67Z"/>
  </g>
</svg>