<?xml version="1.0" encoding="UTF-8"?>
<svg id="Capa_2" data-name="Capa 2" xmlns="http://www.w3.org/2000/svg" viewBox="0 0 30.66 30.97">
  <defs>
    <style>
      .cls-1 {
        stroke-width: 0px;
      }
    </style>
  </defs>
  <g id="Capa_1-2" data-name="Capa 1">
    <path class="cls-1" d="m15.33,2.79c4.09,0,4.58.02,6.19.09,1.67.08,3.39.46,4.61,1.69,1.23,1.24,1.6,2.96,1.67,4.66.07,1.63.09,2.12.09,6.26s-.02,4.63-.09,6.26c-.08,1.68-.47,3.43-1.67,4.66-1.23,1.24-2.93,1.61-4.61,1.69-1.62.07-2.1.09-6.19.09s-4.58-.02-6.19-.09c-1.65-.08-3.41-.48-4.61-1.69-1.22-1.24-1.6-2.97-1.67-4.66-.07-1.63-.09-2.12-.09-6.26s.02-4.62.09-6.26c.08-1.67.47-3.44,1.67-4.66,1.23-1.24,2.94-1.61,4.61-1.69,1.62-.07,2.1-.09,6.19-.09Zm0-2.79c-4.16,0-4.69.02-6.32.09-2.37.11-4.72.78-6.44,2.51C.85,4.34.2,6.71.09,9.1c-.07,1.65-.09,2.18-.09,6.39s.02,4.73.09,6.39c.11,2.39.77,4.77,2.48,6.5,1.72,1.74,4.07,2.4,6.44,2.51,1.63.07,2.16.09,6.32.09s4.69-.02,6.32-.09c2.37-.11,4.72-.78,6.44-2.51,1.72-1.74,2.37-4.11,2.48-6.5.07-1.65.09-2.18.09-6.39s-.02-4.73-.09-6.39c-.11-2.39-.77-4.77-2.48-6.5C26.37.87,24.01.2,21.65.09c-1.64-.07-2.16-.09-6.32-.09Z"/>
    <path class="cls-1" d="m15.33,7.53c-4.35,0-7.87,3.56-7.87,7.95s3.52,7.95,7.87,7.95,7.87-3.56,7.87-7.95-3.52-7.95-7.87-7.95Zm0,13.11c-2.82,0-5.11-2.31-5.11-5.16s2.29-5.16,5.11-5.16,5.11,2.31,5.11,5.16-2.29,5.16-5.11,5.16Z"/>
    <path class="cls-1" d="m23.51,9.08c1.02,0,1.84-.83,1.84-1.86s-.82-1.86-1.84-1.86-1.84.83-1.84,1.86.82,1.86,1.84,1.86Z"/>
  </g>
</svg>