<?xml version="1.0" encoding="UTF-8"?>
<svg id="Capa_2" data-name="Capa 2" xmlns="http://www.w3.org/2000/svg" viewBox="0 0 3081.15 3005">
  <defs>
    <style>
      .cls-1 {
        fill: #fff;
        stroke-width: 0px;
      }
    </style>
  </defs>
  <g id="Capa_1-2" data-name="Capa 1-2">
    <path class="cls-1" d="m2578.28,1665.08c-580.08,129.06-1160.16,258.14-1740.26,387.14-2.17.48-4.6-.09-17.04-.53,752.69-231.83,1496.57-460.94,2253.94-694.2-2.06-21-4.57-41.87-7.51-62.61-179.89,40.76-360.07,80.34-540.2,120.11-496.93,109.7-993.86,219.39-1490.8,329.04-47.9,10.57-95.88,20.82-145.26,26.6,710.25-219.58,1420.51-439.16,2137.69-660.87-6.8-24.54-14.22-48.82-22.24-72.84-666.02,142.56-1328.17,284.29-1990.32,426.01-.37-1.28-.74-2.55-1.1-3.83,126.95-39.06,253.85-78.26,380.86-117.15,506.22-155,1012.58-309.55,1518.43-465.64,10.1-3.12,18.45-4.79,25.52-4.69C2695.43,356.97,2160.97,0,1541,0,689.93,0,0,672.69,0,1502.5s689.93,1502.5,1541,1502.5c716.95,0,1319.54-477.39,1491.66-1123.93-2.98.96-6.16,1.77-9.54,2.48-179.81,37.85-359.59,75.83-539.28,114.16-402.93,85.94-805.82,172.08-1208.72,258.17-191.13,40.84-382.24,81.76-573.38,122.54-3.3.7-6.89.15-10.34.18-.34-1.21-.68-2.43-1.02-3.64,792.55-247.71,1585.12-495.42,2386.22-745.8,2.17-25.32,3.69-50.81,4.55-76.47-167.48,38.04-335.21,75.08-502.88,112.39h.01Z"/>
  </g>
</svg>