<?xml version="1.0" encoding="UTF-8"?>
<svg id="Capa_2" data-name="Capa 2" xmlns="http://www.w3.org/2000/svg" viewBox="0 0 78 76.07">
  <defs>
    <style>
      .cls-1 {
        fill: #fff;
        stroke-width: 0px;
      }
    </style>
  </defs>
  <g id="Capa_1-2" data-name="Capa 1-2">
    <path class="cls-1" d="m65.27,42.15c-14.68,3.27-29.37,6.53-44.05,9.8-.05.01-.12,0-.43-.01,19.05-5.87,37.89-11.67,57.06-17.57-.05-.53-.12-1.06-.19-1.58-4.55,1.03-9.12,2.03-13.68,3.04-12.58,2.78-25.16,5.55-37.74,8.33-1.21.27-2.43.53-3.68.67,17.98-5.56,35.96-11.12,54.12-16.73-.17-.62-.36-1.24-.56-1.84-16.86,3.61-33.62,7.2-50.39,10.78,0-.03-.02-.06-.03-.1,3.21-.99,6.43-1.98,9.64-2.97,12.82-3.92,25.63-7.84,38.44-11.79.26-.08.47-.12.65-.12C68.24,9.04,54.71,0,39.01,0,17.47,0,0,17.03,0,38.04s17.47,38.04,39.01,38.04c18.15,0,33.4-12.09,37.76-28.45-.08.02-.16.04-.24.06-4.55.96-9.1,1.92-13.65,2.89-10.2,2.18-20.4,4.36-30.6,6.54-4.84,1.03-9.68,2.07-14.52,3.1-.08.02-.17,0-.26,0,0-.03-.02-.06-.03-.09,20.06-6.27,40.13-12.54,60.41-18.88.05-.64.09-1.29.12-1.94-4.24.96-8.49,1.9-12.73,2.85h0Z"/>
  </g>
</svg>