<?xml version="1.0" encoding="UTF-8"?>
<svg id="Capa_2" data-name="Capa 2" xmlns="http://www.w3.org/2000/svg" viewBox="0 0 577 477.21">
  <defs>
    <style>
      .cls-1 {
        fill: #fff;
        stroke-width: 0px;
      }
    </style>
  </defs>
  <g id="Capa_2-2" data-name="Capa 2">
    <g>
      <path class="cls-1" d="m576.02,132.49v-16.47l-101.23,46.72v8.43l-66.38,21.7-193.28,89.11,163.66-89.87v-31.91l-175.91,80.43,175.91-96.26v-30.89l-102.13,46.21.32,8.49-6.57-5.87-86.94,40.91,81.19-45.32s-12.51-11.49-56.43-13.28c0,0-48.94,1.87-74.81,1.19s-28.43-14.81-28.43-14.81c0,0-6.64-19.4,22.13-32.68s44.26-2.55,44.26-2.55c0,0,8,5.79,9.7,16.85l101.11-31.32s-7.32-34.89-24-56S204.4.1,204.4.1c0,0-32.51-1.87-68.77,10.21s-61.79,29.62-61.79,29.62c0,0-31.32,19.23-49.87,49.7-18.55,30.47-19.91,53.45-19.91,53.45,0,0-2.38,25.53,1.02,49.36,3.4,23.83,20.26,37.15,20.26,37.15,0,0,16.34,20.04,61.28,20.04s50.21-.68,50.21-.68c0,0,46.13-3.91,53.28,6.64s3.23,21.62,3.23,21.62c0,0-6.64,18.38-31.66,27.23-25.02,8.85-34.38,5.45-34.38,5.45,0,0-18.04-.68-24.68-24.68L0,317.21s7.3,42.38,22.79,55.49c15.49,13.11,34.21,32.51,86.13,29.62s114.04-43.06,114.04-43.06c0,0,35.91-25.87,54.3-58.89l-47.32,20.94,346.09-188.81Z"/>
      <polygon class="cls-1" points="474.28 140.02 474.28 115.76 576.02 69.3 576.02 84.87 474.28 140.02"/>
      <polygon class="cls-1" points="474.28 69.3 474.28 92.79 576.02 37.38 576.02 21.81 474.28 69.3"/>
      <polygon class="cls-1" points="377.89 79.76 377.89 96.87 276.4 151.64 276.4 114.23 377.89 79.76"/>
      <polygon class="cls-1" points="576.02 162.1 577 377.98 475.21 411.51 475.21 270.74 379.21 302.57 379.21 443 278.11 477.21 278.11 299.17 576.02 162.1"/>
    </g>
  </g>
</svg>