<?xml version="1.0" encoding="UTF-8"?>
<svg id="Capa_2" data-name="Capa 2" xmlns="http://www.w3.org/2000/svg" viewBox="0 0 737.11 718.89">
  <defs>
    <style>
      .cls-1 {
        fill: #5c4495;
        stroke-width: 0px;
      }
    </style>
  </defs>
  <g id="Capa_1-2" data-name="Capa 1">
    <g id="Capa_1-2" data-name="Capa 1-2">
      <path class="cls-1" d="m616.81,398.34c-138.77,30.88-277.55,61.76-416.33,92.62-.52.11-1.1-.02-4.08-.13,180.07-55.46,358.03-110.27,539.22-166.08-.49-5.02-1.09-10.02-1.8-14.98-43.04,9.75-86.14,19.22-129.23,28.73-118.88,26.24-237.76,52.49-356.65,78.72-11.46,2.53-22.94,4.98-34.75,6.36,169.92-52.53,339.83-105.06,511.41-158.1-1.63-5.87-3.4-11.68-5.32-17.43-159.33,34.11-317.74,68.01-476.15,101.92-.09-.31-.18-.61-.26-.92,30.37-9.34,60.73-18.72,91.11-28.03,121.1-37.08,242.24-74.05,363.26-111.4,2.42-.75,4.41-1.15,6.11-1.12C644.84,85.4,516.97,0,368.66,0,165.05,0,0,160.93,0,359.45s165.05,359.45,368.66,359.45c171.52,0,315.68-114.21,356.85-268.88-.71.23-1.47.42-2.28.59-43.02,9.05-86.03,18.14-129.01,27.31-96.39,20.56-192.78,41.17-289.17,61.76-45.72,9.77-91.44,19.56-137.17,29.32-.79.17-1.65.04-2.47.04-.08-.29-.16-.58-.24-.87,189.6-59.26,379.21-118.52,570.86-178.42.52-6.06.88-12.16,1.09-18.29-40.07,9.1-80.19,17.96-120.31,26.89h0Z"/>
    </g>
  </g>
</svg>